<svg width="32" height="29" fill="none" xmlns="http://www.w3.org/2000/svg"><path d="M6.25 24.348C6.25 25.813 5.075 27 3.625 27S1 25.813 1 24.348c0-1.464 1.175-2.651 2.625-2.651s2.625 1.187 2.625 2.651zM2.5 17.91V6.895L16.448 2v4.895l13.745-4.08-2.83 6.732L31 13.014 16.447 17.91v-4.896L2.501 17.91z" fill="#013220"/><path d="M16.447 6.895V2L2.501 6.895V17.91l13.946-4.896m0-6.119l13.745-4.08-2.83 6.732L31 13.014 16.447 17.91v-4.896m0-6.119v6.12M6.25 24.347C6.25 25.813 5.075 27 3.625 27S1 25.813 1 24.348c0-1.464 1.175-2.651 2.625-2.651s2.625 1.187 2.625 2.651z" stroke="#013220" stroke-width="2.5"/></svg>