<svg width="20" height="20" fill="none" xmlns="http://www.w3.org/2000/svg"><path d="M19.344 2.782c-.194-.525-.503-1-.905-1.39a3.745 3.745 0 00-1.39-.905C16.623.32 15.982.124 14.803.07 13.528.013 13.145 0 9.916 0c-3.23 0-3.612.012-4.888.07-1.179.054-1.82.251-2.245.417a3.74 3.74 0 00-1.391.905 3.75 3.75 0 00-.905 1.39C.32 3.208.124 3.85.07 5.028.013 6.304 0 6.686 0 9.916s.013 3.612.07 4.887c.054 1.18.251 1.82.417 2.246.194.525.503 1 .905 1.39.39.402.865.711 1.39.905.426.166 1.067.363 2.246.417 1.276.058 1.658.07 4.887.07 3.23 0 3.613-.012 4.888-.07 1.18-.054 1.82-.251 2.246-.417a4.005 4.005 0 002.295-2.295c.166-.426.363-1.067.417-2.246.058-1.275.07-1.658.07-4.887 0-3.23-.012-3.612-.07-4.888-.054-1.179-.251-1.82-.417-2.246zM9.916 14.841c-3.058-.038-4.926-2.325-4.926-4.926 0-2.6 2.04-4.963 4.926-4.925 2.885.038 4.887 2.325 4.925 4.925-.038 2.886-1.867 4.964-4.925 4.926zm5.628-9.355c-.914 0-1.829-.854-1.829-2.027s1.372-1.63 1.83-1.63c.456 0 1.828.457 1.828 1.63 0 1.173-.914 2.027-1.829 2.027z" fill="#fff"/></svg>