<svg width="34" height="34" fill="none" xmlns="http://www.w3.org/2000/svg"><circle cx="17" cy="17" r="17" fill="url(#paint0_linear)" fill-opacity=".5"/><g clip-path="url(#clip0)"><path d="M25.51 21.21l-2.512-2.512c-.897-.897-2.422-.538-2.781.628-.27.808-1.166 1.256-1.974 1.077-1.794-.449-4.216-2.781-4.665-4.665-.269-.808.27-1.705 1.077-1.974 1.166-.359 1.525-1.884.628-2.781L12.77 8.47c-.718-.628-1.794-.628-2.422 0l-1.705 1.704c-1.704 1.795.18 6.55 4.396 10.766s8.971 6.19 10.765 4.396l1.705-1.705c.628-.717.628-1.794 0-2.422z" fill="#013220"/></g><defs><linearGradient id="paint0_linear" x1="0" y1="0" x2="38.206" y2="5.672" gradientUnits="userSpaceOnUse"><stop stop-color="#9FC6EB"/><stop offset="1" stop-color="#ECD5A9"/></linearGradient><clipPath id="clip0"><path fill="#fff" transform="translate(8 8)" d="M0 0h18v18H0z"/></clipPath></defs></svg>