<svg width="62" height="54" fill="none" xmlns="http://www.w3.org/2000/svg"><path d="M1.095 25.893l14.286 5.334 5.53 17.789a1.682 1.682 0 002.67.804l7.964-6.494a2.375 2.375 0 012.896-.08l14.363 10.43c.989.72 2.39.178 2.638-1.018L61.964 2.03c.27-1.306-1.012-2.395-2.255-1.914L1.079 22.74c-1.448.559-1.435 2.608.016 3.152zm18.925 2.494l27.92-17.202c.502-.308 1.018.37.587.77L25.485 33.383a4.78 4.78 0 00-1.48 2.859l-.786 5.819c-.104.777-1.195.854-1.409.102L18.791 31.55a2.813 2.813 0 011.229-3.164z" fill="#013220"/></svg>